{
	"asset":{
		"version":"2.0",
		"generator":"Created using the official Cinema 4D glTF Exporter 1.000x284978"
	},
	"scenes":[{
		"nodes":[0,
		1,
		2,
		3]
	}],
	"nodes":[{
		"name":"Цилиндр.1",
		"translation":[24.74529457092285,
		18.46747398376465,
		7.634292125701904],
		"rotation":[0.02880607359111309,
		-0.02880607359111309,
		0.7065197825431824,
		-0.7065197825431824],
		"mesh":0,
		"scale":[1.0,
		1.0,
		1.0]
	},
	{
		"name":"Цилиндр",
		"translation":[18.33365821838379,
		18.07945442199707,
		7.993974685668945],
		"rotation":[0.7065197825431824,
		-0.7065197825431824,
		-0.02880607359111309,
		0.02880607359111309],
		"mesh":1,
		"scale":[1.0,
		1.0,
		1.0]
	},
	{
		"name":"Цилиндр.2",
		"translation":[20.851436614990236,
		4.156169891357422,
		7.220892429351807],
		"rotation":[0.0,
		0.0,
		0.7071067690849304,
		-0.7071067690849304],
		"mesh":2,
		"scale":[1.0,
		1.0,
		1.0]
	},
	{
		"name":"Neutre",
		"translation":[20.68781280517578,
		0.0,
		0.0],
		"rotation":[0.0,
		0.0,
		0.0,
		-1.0],
		"scale":[1.0,
		1.0,
		1.0],
		"children":[4]
	},
	{
		"name":"Capsule_2",
		"translation":[-1.40487539768219,
		10.093851089477539,
		4.730953216552734],
		"rotation":[0.15318076312541963,
		0.002909200731664896,
		-0.03977091982960701,
		0.9873932600021362],
		"scale":[1.0,
		1.0,
		1.0],
		"children":[5,
		6,
		7,
		8,
		9]
	},
	{
		"name":"Capsule_2-Mat",
		"translation":[-2.4868995857482627e-16,
		-8.526512638538789e-16,
		-5.684341759025859e-16],
		"rotation":[0.0,
		-1.734723475976807e-18,
		0.0,
		-1.0],
		"mesh":3,
		"scale":[1.0,
		1.0,
		1.0]
	},
	{
		"name":"Capsule_2-Mat.5",
		"translation":[-2.4868995857482627e-16,
		-8.526512638538789e-16,
		-5.684341759025859e-16],
		"rotation":[0.0,
		-1.734723475976807e-18,
		0.0,
		-1.0],
		"mesh":4,
		"scale":[1.0,
		1.0,
		1.0]
	},
	{
		"name":"Capsule_2-Mat.4",
		"translation":[-2.4868995857482627e-16,
		-8.526512638538789e-16,
		-5.684341759025859e-16],
		"rotation":[0.0,
		-1.734723475976807e-18,
		0.0,
		-1.0],
		"mesh":5,
		"scale":[1.0,
		1.0,
		1.0]
	},
	{
		"name":"Capsule_2-Mat.6",
		"translation":[-2.4868995857482627e-16,
		-8.526512638538789e-16,
		-5.684341759025859e-16],
		"rotation":[0.0,
		-1.734723475976807e-18,
		0.0,
		-1.0],
		"mesh":6,
		"scale":[1.0,
		1.0,
		1.0]
	},
	{
		"name":"Capsule_2-Mat.1",
		"translation":[-2.4868995857482627e-16,
		-8.526512638538789e-16,
		-5.684341759025859e-16],
		"rotation":[0.0,
		-1.734723475976807e-18,
		0.0,
		-1.0],
		"mesh":7,
		"scale":[1.0,
		1.0,
		1.0]
	}],
	"accessors":[{
		"bufferView":0,
		"type":"SCALAR",
		"max":[505],
		"count":2646,
		"componentType":5123,
		"byteOffset":0,
		"min":[0]
	},
	{
		"bufferView":1,
		"type":"VEC3",
		"max":[2.1772310733795168,
		1.9034903049468995,
		0.349021315574646],
		"count":506,
		"componentType":5126,
		"byteOffset":0,
		"min":[-0.3443432152271271,
		-2.349876880645752,
		-0.349021315574646]
	},
	{
		"bufferView":1,
		"type":"VEC3",
		"max":[0.9999905824661255,
		0.9852722883224487,
		0.999695360660553],
		"count":506,
		"componentType":5126,
		"byteOffset":12,
		"min":[-0.9929606318473816,
		-0.9976701140403748,
		-0.9996975064277649]
	},
	{
		"bufferView":1,
		"type":"VEC2",
		"max":[1.0,
		1.0],
		"count":506,
		"componentType":5126,
		"byteOffset":24,
		"min":[0.0,
		0.0]
	},
	{
		"bufferView":2,
		"type":"SCALAR",
		"max":[505],
		"count":2646,
		"componentType":5123,
		"byteOffset":0,
		"min":[0]
	},
	{
		"bufferView":3,
		"type":"VEC3",
		"max":[2.17378830909729,
		1.905372977256775,
		0.349021315574646],
		"count":506,
		"componentType":5126,
		"byteOffset":0,
		"min":[-0.3443528413772583,
		-2.3496406078338625,
		-0.349021315574646]
	},
	{
		"bufferView":3,
		"type":"VEC3",
		"max":[0.9999908208847046,
		0.9850425720214844,
		0.9996953010559082],
		"count":506,
		"componentType":5126,
		"byteOffset":12,
		"min":[-0.992983341217041,
		-0.99769526720047,
		-0.9996975064277649]
	},
	{
		"bufferView":3,
		"type":"VEC2",
		"max":[1.0,
		1.0],
		"count":506,
		"componentType":5126,
		"byteOffset":24,
		"min":[0.0,
		0.0]
	},
	{
		"bufferView":4,
		"type":"SCALAR",
		"max":[219],
		"count":1008,
		"componentType":5123,
		"byteOffset":0,
		"min":[0]
	},
	{
		"bufferView":5,
		"type":"VEC3",
		"max":[1.929410696029663,
		2.6445069313049318,
		0.349021315574646],
		"count":220,
		"componentType":5126,
		"byteOffset":0,
		"min":[-0.34609079360961916,
		-2.569999933242798,
		-0.3776734173297882]
	},
	{
		"bufferView":5,
		"type":"VEC3",
		"max":[0.997711718082428,
		0.80461186170578,
		0.999718427658081],
		"count":220,
		"componentType":5126,
		"byteOffset":12,
		"min":[-0.9940512776374817,
		-1.0,
		-0.9996957182884216]
	},
	{
		"bufferView":5,
		"type":"VEC2",
		"max":[1.0,
		1.0],
		"count":220,
		"componentType":5126,
		"byteOffset":24,
		"min":[0.0,
		0.0]
	},
	{
		"bufferView":6,
		"type":"SCALAR",
		"max":[8481],
		"count":45072,
		"componentType":5123,
		"byteOffset":0,
		"min":[0]
	},
	{
		"bufferView":7,
		"type":"VEC3",
		"max":[8.790141105651856,
		9.610572814941407,
		6.3903069496154789],
		"count":8482,
		"componentType":5126,
		"byteOffset":0,
		"min":[-4.263387203216553,
		-21.39383888244629,
		-33.54025650024414]
	},
	{
		"bufferView":7,
		"type":"VEC3",
		"max":[0.9997813105583191,
		0.9999688267707825,
		0.9998750686645508],
		"count":8482,
		"componentType":5126,
		"byteOffset":12,
		"min":[-0.9999688267707825,
		-1.0,
		-0.9999688267707825]
	},
	{
		"bufferView":7,
		"type":"VEC2",
		"max":[1.0,
		1.0],
		"count":8482,
		"componentType":5126,
		"byteOffset":24,
		"min":[0.0,
		0.0]
	},
	{
		"bufferView":8,
		"type":"SCALAR",
		"max":[363],
		"count":1080,
		"componentType":5123,
		"byteOffset":0,
		"min":[0]
	},
	{
		"bufferView":9,
		"type":"VEC3",
		"max":[4.876575469970703,
		7.9846014976501469,
		0.831824779510498],
		"count":364,
		"componentType":5126,
		"byteOffset":0,
		"min":[-1.5282840728759766,
		6.0178961753845219,
		0.0024087554775178434]
	},
	{
		"bufferView":9,
		"type":"VEC3",
		"max":[0.2253125160932541,
		-0.09743750095367432,
		-0.8692187666893005],
		"count":364,
		"componentType":5126,
		"byteOffset":12,
		"min":[-0.1901875138282776,
		-0.49375003576278689,
		-0.995093822479248]
	},
	{
		"bufferView":9,
		"type":"VEC2",
		"max":[1.0,
		0.06666666269302368],
		"count":364,
		"componentType":5126,
		"byteOffset":24,
		"min":[0.0,
		0.0]
	},
	{
		"bufferView":10,
		"type":"SCALAR",
		"max":[365],
		"count":1440,
		"componentType":5123,
		"byteOffset":0,
		"min":[0]
	},
	{
		"bufferView":11,
		"type":"VEC3",
		"max":[5.370481014251709,
		8.507122993469239,
		1.1362242698669434],
		"count":366,
		"componentType":5126,
		"byteOffset":0,
		"min":[-2.0279812812805177,
		5.593009948730469,
		-0.009562256745994091]
	},
	{
		"bufferView":11,
		"type":"VEC3",
		"max":[0.4228437840938568,
		0.11140625178813935,
		-0.7475000619888306],
		"count":366,
		"componentType":5126,
		"byteOffset":12,
		"min":[-0.39006251096725466,
		-0.6637187600135803,
		-0.9998750686645508]
	},
	{
		"bufferView":11,
		"type":"VEC2",
		"max":[1.0,
		0.13333332538604737],
		"count":366,
		"componentType":5126,
		"byteOffset":24,
		"min":[0.0,
		0.06666666269302368]
	},
	{
		"bufferView":12,
		"type":"SCALAR",
		"max":[548],
		"count":2160,
		"componentType":5123,
		"byteOffset":0,
		"min":[0]
	},
	{
		"bufferView":13,
		"type":"VEC3",
		"max":[6.018484115600586,
		9.261048316955567,
		1.7408137321472169],
		"count":549,
		"componentType":5126,
		"byteOffset":0,
		"min":[-2.6912600994110109,
		5.09661865234375,
		0.005856091156601906]
	},
	{
		"bufferView":13,
		"type":"VEC3",
		"max":[0.6428437829017639,
		0.3647812604904175,
		-0.550125002861023],
		"count":549,
		"componentType":5126,
		"byteOffset":12,
		"min":[-0.6150000095367432,
		-0.8346250653266907,
		-0.9937812685966492]
	},
	{
		"bufferView":13,
		"type":"VEC2",
		"max":[1.0,
		0.23333331942558289],
		"count":549,
		"componentType":5126,
		"byteOffset":24,
		"min":[0.0,
		0.13333332538604737]
	},
	{
		"bufferView":14,
		"type":"SCALAR",
		"max":[423],
		"count":1800,
		"componentType":5123,
		"byteOffset":0,
		"min":[0]
	},
	{
		"bufferView":15,
		"type":"VEC3",
		"max":[10.561883926391602,
		6.050169467926025,
		-6.435858249664307],
		"count":424,
		"componentType":5126,
		"byteOffset":0,
		"min":[-7.24004602432251,
		-12.494102478027344,
		-24.77497673034668]
	},
	{
		"bufferView":15,
		"type":"VEC3",
		"max":[0.9965313076972961,
		0.998343825340271,
		0.9953125715255737],
		"count":424,
		"componentType":5126,
		"byteOffset":12,
		"min":[-0.9965313076972961,
		-0.998343825340271,
		-0.9954375624656677]
	},
	{
		"bufferView":15,
		"type":"VEC2",
		"max":[1.0,
		1.0],
		"count":424,
		"componentType":5126,
		"byteOffset":24,
		"min":[0.0,
		0.0]
	}],
	"meshes":[{
		"name":"Цилиндр.1",
		"primitives":[{
			"attributes":{
				"POSITION":1,
				"NORMAL":2,
				"TEXCOORD_0":3
			},
			"indices":0,
			"material":0
		}]
	},
	{
		"name":"Цилиндр",
		"primitives":[{
			"attributes":{
				"POSITION":5,
				"NORMAL":6,
				"TEXCOORD_0":7
			},
			"indices":4,
			"material":0
		}]
	},
	{
		"name":"Цилиндр.2",
		"primitives":[{
			"attributes":{
				"POSITION":9,
				"NORMAL":10,
				"TEXCOORD_0":11
			},
			"indices":8,
			"material":1
		}]
	},
	{
		"name":"Capsule_2-Mat",
		"primitives":[{
			"attributes":{
				"POSITION":13,
				"NORMAL":14,
				"TEXCOORD_0":15
			},
			"indices":12,
			"material":1
		}]
	},
	{
		"name":"Capsule_2-Mat.5",
		"primitives":[{
			"attributes":{
				"POSITION":17,
				"NORMAL":18,
				"TEXCOORD_0":19
			},
			"indices":16,
			"material":0
		}]
	},
	{
		"name":"Capsule_2-Mat.4",
		"primitives":[{
			"attributes":{
				"POSITION":21,
				"NORMAL":22,
				"TEXCOORD_0":23
			},
			"indices":20,
			"material":2
		}]
	},
	{
		"name":"Capsule_2-Mat.6",
		"primitives":[{
			"attributes":{
				"POSITION":25,
				"NORMAL":26,
				"TEXCOORD_0":27
			},
			"indices":24,
			"material":3
		}]
	},
	{
		"name":"Capsule_2-Mat.1",
		"primitives":[{
			"attributes":{
				"POSITION":29,
				"NORMAL":30,
				"TEXCOORD_0":31
			},
			"indices":28,
			"material":4
		}]
	}],
	"bufferViews":[{
		"byteOffset":0,
		"buffer":0,
		"byteLength":5292,
		"target":34963
	},
	{
		"byteOffset":5292,
		"buffer":0,
		"byteLength":16192,
		"target":34962,
		"byteStride":32
	},
	{
		"byteOffset":0,
		"buffer":1,
		"byteLength":5292,
		"target":34963
	},
	{
		"byteOffset":5292,
		"buffer":1,
		"byteLength":16192,
		"target":34962,
		"byteStride":32
	},
	{
		"byteOffset":0,
		"buffer":2,
		"byteLength":2016,
		"target":34963
	},
	{
		"byteOffset":2016,
		"buffer":2,
		"byteLength":7040,
		"target":34962,
		"byteStride":32
	},
	{
		"byteOffset":0,
		"buffer":3,
		"byteLength":90144,
		"target":34963
	},
	{
		"byteOffset":90144,
		"buffer":3,
		"byteLength":271424,
		"target":34962,
		"byteStride":32
	},
	{
		"byteOffset":0,
		"buffer":4,
		"byteLength":2160,
		"target":34963
	},
	{
		"byteOffset":2160,
		"buffer":4,
		"byteLength":11648,
		"target":34962,
		"byteStride":32
	},
	{
		"byteOffset":0,
		"buffer":5,
		"byteLength":2880,
		"target":34963
	},
	{
		"byteOffset":2880,
		"buffer":5,
		"byteLength":11712,
		"target":34962,
		"byteStride":32
	},
	{
		"byteOffset":0,
		"buffer":6,
		"byteLength":4320,
		"target":34963
	},
	{
		"byteOffset":4320,
		"buffer":6,
		"byteLength":17568,
		"target":34962,
		"byteStride":32
	},
	{
		"byteOffset":0,
		"buffer":7,
		"byteLength":3600,
		"target":34963
	},
	{
		"byteOffset":3600,
		"buffer":7,
		"byteLength":13568,
		"target":34962,
		"byteStride":32
	}],
	"buffers":[{
		"uri":"data:application/octet-stream;base64,",
		"byteLength":21484
	},
	{
		"uri":"data:application/octet-stream;base64,",
		"byteLength":21484
	},
	{
		"uri":"data:application/octet-stream;base64,",
		"byteLength":9056
	},
	{
		"uri":"data:application/octet-stream;base64,",
		"byteLength":361568
	},
	{
		"uri":"data:application/octet-stream;base64,",
		"byteLength":13808
	},
	{
		"uri":"data:application/octet-stream;base64,",
		"byteLength":14592
	},
	{
		"uri":"data:application/octet-stream;base64,",
		"byteLength":21888
	},
	{
		"uri":"data:application/octet-stream;base64,",
		"byteLength":17168
	}],
	"materials":[{
		"alphaMode":"OPAQUE",
		"pbrMetallicRoughness":{
			"baseColorFactor":[0.0,
			0.0,
			0.0,
			1.0],
			"metallicFactor":0.0,
			"roughnessFactor":0.4356143810225276
		},
		"emissiveFactor":[0.0,
		0.0,
		0.0],
		"doubleSided":true,
		"name":"Mat.5"
	},
	{
		"alphaMode":"OPAQUE",
		"pbrMetallicRoughness":{
			"baseColorFactor":[0.5816326530612245,
			0.5061536064807602,
			0.5061536064807602,
			1.0],
			"metallicFactor":1.0,
			"roughnessFactor":0.0
		},
		"emissiveFactor":[0.0,
		0.0,
		0.0],
		"doubleSided":true,
		"name":"Mat"
	},
	{
		"alphaMode":"OPAQUE",
		"pbrMetallicRoughness":{
			"baseColorFactor":[0.05016357688113411,
			0.8647245157605029,
			0.9387755102040817,
			1.0],
			"metallicFactor":0.0,
			"roughnessFactor":0.4356143810225276
		},
		"emissiveFactor":[0.0,
		0.0,
		0.0],
		"doubleSided":true,
		"name":"Mat.4"
	},
	{
		"alphaMode":"OPAQUE",
		"pbrMetallicRoughness":{
			"baseColorFactor":[0.9183673469387755,
			0.9183673469387755,
			0.9183673469387755,
			1.0],
			"metallicFactor":0.0,
			"roughnessFactor":0.4356143810225276
		},
		"emissiveFactor":[0.0,
		0.0,
		0.0],
		"doubleSided":true,
		"name":"Mat.6"
	},
	{
		"alphaMode":"OPAQUE",
		"pbrMetallicRoughness":{
			"baseColorFactor":[0.55,
			0.20350000000000013,
			0.05499999999999999,
			1.0],
			"metallicFactor":1.0,
			"roughnessFactor":0.0
		},
		"emissiveFactor":[0.0,
		0.0,
		0.0],
		"doubleSided":true,
		"name":"Mat.1"
	}]
}